<svg version="1.0" xmlns="http://www.w3.org/2000/svg" width="1365.333" height="1365.333" viewBox="0 0 1024 1024"><path d="M617 130.7c-2.5.2-10.1 1.3-16.9 2.4-51.8 8.2-98.8 31.6-136.3 67.7-43.6 42.1-69.4 93.3-77.3 153.5-2 15.4-2 46.4 0 62.7 4 32.2 14.7 64.9 30.6 93.5l6 10.9-36.3 36.3c-20 20-36.7 36.3-37.2 36.3s-3.5-2.5-6.7-5.5c-5.3-5.1-6.1-5.5-10.6-5.5h-4.8l-89.8 89.7c-49.4 49.4-91.3 91.8-93.2 94.3-4.6 6.2-9.8 17-12.7 26-2 6.5-2.3 9.5-2.3 23 .1 14.9.2 15.9 3.3 25 4.6 13.3 10.1 22.1 20.1 32.1 10 10 18.7 15.5 32.1 20.1 9.2 3.1 10 3.2 25.5 3.3 15.3 0 16.4-.2 25.3-3.2 19-6.4 14.6-2.5 115.5-103.2l91.7-91.6v-4.8c0-4.5-.4-5.3-5.5-10.6-3-3.2-5.5-6.2-5.5-6.7s16.4-17.3 36.4-37.3l36.3-36.3 8 4.6c88.6 51.1 200 44.1 282.2-17.7 12.4-9.4 34.3-30.6 44.4-43.2 31.3-38.9 50.4-85.1 55.8-135.2 1.5-14.4.7-50.3-1.5-63.8-15.3-95.3-79.7-172.6-169.4-203.6-28.4-9.7-47.7-13-79.2-13.4-12.9-.1-25.5-.1-28 .2zm57 25.8c101.9 15.6 179.7 93.4 195.6 195.5 2.5 16.1 2.6 51.1.1 66.9-4.1 26-11.3 48.4-22.8 71.1-33.9 67-97.1 112.8-171.4 124.5-14.3 2.2-42.5 3-57 1.6-93.8-9.4-171.6-72.9-199.4-162.6-7.1-22.9-9.6-41-9.6-68.5.1-23.6 1.3-34.7 6.4-55.5 7.4-30 23-62.2 42.5-86.9 25-32 60.2-57.9 99-73.1 18.7-7.3 37.7-11.6 65.6-14.9 7.4-.9 41 .4 51 1.9zM443.7 549.2c3.3 4 10.5 11.7 15.9 17.2 5.5 5.4 13.2 12.6 17.2 15.9 3.9 3.3 7.2 6.2 7.2 6.6 0 .3-15.8 16.4-35 35.6l-35 35-23.7-23.8-23.8-23.7 35-35c19.2-19.2 35.3-35 35.6-35 .4 0 3.3 3.3 6.6 7.2zM329.3 778.1l-84.8 84.7-8.5 4c-18.4 8.8-38 8-55.6-2.3-7.7-4.4-16.7-14.3-20.8-22.7-8.5-17.3-8.5-35.2 0-52.8 3.5-7.2 6.7-10.5 88.3-92.3l84.6-84.7 40.7 40.7 40.8 40.8-84.7 84.6z"/><path d="M621 202.1c-58.1 6.6-109 39.3-139.3 89.7-3 5.1-5.8 10.6-6.2 12.2-2.2 9.8 7.3 17.6 16.7 13.7 2.9-1.2 4.5-3.2 8.8-10.7 23-40.1 62-68.8 106.5-78.1 5.4-1.1 15.6-2.4 22.6-2.9 7.1-.5 13.8-1.4 14.8-2 8.3-4.4 8.1-17.4-.3-21.4-3.7-1.7-11-1.9-23.6-.5z"/></svg>